<svg width="129" height="43" viewBox="0 0 129 43" fill="none" xmlns="http://www.w3.org/2000/svg">
<rect x="0.537299" y="0.537299" width="127.877" height="41.9093" rx="6.98488" fill="#0C0D10"/>
<rect x="0.537299" y="0.537299" width="127.877" height="41.9093" rx="6.98488" stroke="#A6A6A6" stroke-width="1.0746"/>
<path d="M87.6076 20.6331V23.095H86.0644V24.7095H87.6076V30.1953C87.6076 32.0685 88.455 32.8178 90.5868 32.8178C90.9615 32.8178 91.3183 32.7732 91.6305 32.7197V31.123C91.3629 31.1498 91.1934 31.1676 90.899 31.1676C89.9446 31.1676 89.5254 30.7216 89.5254 29.7047V24.7095H91.6305V23.095H89.5254V20.6331H87.6076Z" fill="white"/>
<path d="M97.0613 32.9516C99.8979 32.9516 101.637 31.0517 101.637 27.9029C101.637 24.772 99.889 22.8631 97.0613 22.8631C94.2248 22.8631 92.4765 24.772 92.4765 27.9029C92.4765 31.0517 94.2159 32.9516 97.0613 32.9516ZM97.0613 31.2479C95.3933 31.2479 94.4567 30.0259 94.4567 27.9029C94.4567 25.7978 95.3933 24.5668 97.0613 24.5668C98.7205 24.5668 99.666 25.7978 99.666 27.9029C99.666 30.0169 98.7205 31.2479 97.0613 31.2479Z" fill="white"/>
<path d="M103.126 32.7643H105.043V27.0287C105.043 25.664 106.069 24.7452 107.523 24.7452C107.862 24.7452 108.433 24.8077 108.593 24.8612V22.9702C108.388 22.9166 108.023 22.8899 107.737 22.8899C106.471 22.8899 105.391 23.5856 105.115 24.5401H104.972V23.0504H103.126V32.7643Z" fill="white"/>
<path d="M113.355 24.4955C114.774 24.4955 115.701 25.4856 115.746 27.0109H110.84C110.947 25.4945 111.937 24.4955 113.355 24.4955ZM115.737 30.1418C115.38 30.9 114.586 31.3193 113.427 31.3193C111.892 31.3193 110.902 30.2399 110.84 28.5362V28.4292H117.699V27.7602C117.699 24.7095 116.067 22.8631 113.364 22.8631C110.626 22.8631 108.886 24.8344 108.886 27.9386C108.886 31.0427 110.59 32.9516 113.373 32.9516C115.594 32.9516 117.146 31.8812 117.583 30.1418H115.737Z" fill="white"/>
<path d="M75.0309 29.1771C75.1788 31.5624 77.1666 33.0879 80.1251 33.0879C83.287 33.0879 85.2655 31.4885 85.2655 28.9367C85.2655 26.9305 84.1376 25.8211 81.4009 25.1831L79.9309 24.8226C78.1928 24.4158 77.4902 23.8703 77.4902 22.918C77.4902 21.7162 78.5811 20.9303 80.2175 20.9303C81.7708 20.9303 82.8432 21.6977 83.0374 22.9273H85.0528C84.9327 20.6807 82.9542 19.0997 80.2453 19.0997C77.333 19.0997 75.3915 20.6807 75.3915 23.0567C75.3915 25.0167 76.4917 26.1816 78.9047 26.7456L80.6243 27.1616C82.3902 27.5777 83.1668 28.1879 83.1668 29.2049C83.1668 30.3883 81.9464 31.2481 80.2823 31.2481C78.4979 31.2481 77.259 30.4437 77.0834 29.1771H75.0309Z" fill="white"/>
<path d="M55.1645 22.8899C53.8443 22.8899 52.7026 23.55 52.1138 24.656H51.9711V23.0504H50.1247V35.9933H52.0425V31.2925H52.1941C52.7026 32.3183 53.7997 32.9249 55.1823 32.9249C57.6353 32.9249 59.1963 30.9892 59.1963 27.9029C59.1963 24.8166 57.6353 22.8899 55.1645 22.8899ZM54.6204 31.2033C53.0148 31.2033 52.0068 29.9367 52.0068 27.9118C52.0068 25.8781 53.0148 24.6114 54.6293 24.6114C56.2527 24.6114 57.225 25.8513 57.225 27.9029C57.225 29.9634 56.2527 31.2033 54.6204 31.2033Z" fill="white"/>
<path d="M65.907 22.8899C64.5869 22.8899 63.4451 23.55 62.8564 24.656H62.7137V23.0504H60.8672V35.9933H62.785V31.2925H62.9367C63.4451 32.3183 64.5423 32.9249 65.9249 32.9249C68.3779 32.9249 69.9389 30.9892 69.9389 27.9029C69.9389 24.8166 68.3779 22.8899 65.907 22.8899ZM65.3629 31.2033C63.7573 31.2033 62.7493 29.9367 62.7493 27.9118C62.7493 25.8781 63.7573 24.6114 65.3718 24.6114C66.9953 24.6114 67.9675 25.8513 67.9675 27.9029C67.9675 29.9634 66.9953 31.2033 65.3629 31.2033Z" fill="white"/>
<path d="M46.6838 32.7643H48.8842L44.0674 19.4233H41.8393L37.0225 32.7643H39.1489L40.3785 29.2234H45.4634L46.6838 32.7643ZM42.847 21.8456H43.0042L44.9365 27.4852H40.9055L42.847 21.8456Z" fill="white"/>
<path d="M26.6175 21.8153C26.6407 20.0089 27.6108 18.2997 29.1498 17.3535C28.1789 15.967 26.5528 15.0878 24.8609 15.0349C23.0564 14.8455 21.307 16.1147 20.3875 16.1147C19.4501 16.1147 18.0344 15.0537 16.5098 15.0851C14.5226 15.1493 12.67 16.2791 11.7032 18.0164C9.62494 21.6146 11.1751 26.9028 13.166 29.8113C14.162 31.2355 15.3261 32.8264 16.8493 32.77C18.3398 32.7082 18.8965 31.8195 20.6957 31.8195C22.4782 31.8195 23.0005 32.77 24.5546 32.7341C26.154 32.7081 27.1617 31.3036 28.1228 29.8659C28.8384 28.8511 29.3891 27.7295 29.7545 26.5427C27.8749 25.7477 26.6197 23.8561 26.6175 21.8153Z" fill="white"/>
<path d="M23.682 13.1221C24.5541 12.0752 24.9837 10.7296 24.8797 9.37109C23.5474 9.51103 22.3167 10.1478 21.4328 11.1545C20.5685 12.1381 20.1188 13.46 20.2038 14.7666C21.5366 14.7804 22.8469 14.1609 23.682 13.1221Z" fill="white"/>
<path d="M43.992 13.5327H45.0414C45.0078 13.9328 44.8959 14.2896 44.7056 14.6031C44.5153 14.9137 44.248 15.1585 43.9038 15.3376C43.5596 15.5167 43.1412 15.6063 42.6487 15.6063C42.2709 15.6063 41.9309 15.5391 41.6287 15.4048C41.3265 15.2677 41.0676 15.0746 40.8521 14.8255C40.6367 14.5737 40.4715 14.27 40.3568 13.9146C40.2449 13.5592 40.1889 13.1619 40.1889 12.7225V12.2146C40.1889 11.7752 40.2463 11.3779 40.361 11.0225C40.4785 10.6671 40.6464 10.3634 40.8647 10.1116C41.083 9.85692 41.3447 9.66243 41.6497 9.5281C41.9575 9.39378 42.3031 9.32661 42.6865 9.32661C43.1734 9.32661 43.5848 9.41616 43.9206 9.59526C44.2564 9.77436 44.5167 10.022 44.7014 10.3382C44.8889 10.6545 45.0036 11.0169 45.0456 11.4254H43.9962C43.9682 11.1624 43.9066 10.9371 43.8115 10.7496C43.7191 10.5621 43.582 10.4194 43.4001 10.3215C43.2182 10.2207 42.9803 10.1703 42.6865 10.1703C42.4458 10.1703 42.236 10.2151 42.0569 10.3047C41.8778 10.3942 41.728 10.5257 41.6077 10.6992C41.4874 10.8727 41.3964 11.0868 41.3349 11.3415C41.2761 11.5933 41.2467 11.8816 41.2467 12.2062V12.7225C41.2467 13.0303 41.2733 13.3102 41.3265 13.562C41.3824 13.8111 41.4664 14.0252 41.5783 14.2043C41.6931 14.3834 41.8386 14.5219 42.0149 14.6198C42.1912 14.7178 42.4025 14.7668 42.6487 14.7668C42.9482 14.7668 43.1902 14.7192 43.3749 14.624C43.5624 14.5289 43.7037 14.3904 43.7989 14.2085C43.8968 14.0238 43.9612 13.7985 43.992 13.5327ZM45.7046 13.3018V13.2052C45.7046 12.8778 45.7522 12.5742 45.8473 12.2943C45.9425 12.0117 46.0796 11.7668 46.2587 11.5598C46.4406 11.3499 46.6617 11.1876 46.9219 11.0728C47.185 10.9553 47.4816 10.8965 47.8118 10.8965C48.1448 10.8965 48.4415 10.9553 48.7017 11.0728C48.9648 11.1876 49.1873 11.3499 49.3692 11.5598C49.5511 11.7668 49.6896 12.0117 49.7847 12.2943C49.8799 12.5742 49.9274 12.8778 49.9274 13.2052V13.3018C49.9274 13.6292 49.8799 13.9328 49.7847 14.2127C49.6896 14.4925 49.5511 14.7374 49.3692 14.9473C49.1873 15.1543 48.9662 15.3167 48.7059 15.4342C48.4457 15.5489 48.1504 15.6063 47.8202 15.6063C47.4872 15.6063 47.1892 15.5489 46.9261 15.4342C46.6659 15.3167 46.4448 15.1543 46.2629 14.9473C46.081 14.7374 45.9425 14.4925 45.8473 14.2127C45.7522 13.9328 45.7046 13.6292 45.7046 13.3018ZM46.7162 13.2052V13.3018C46.7162 13.5061 46.7372 13.6992 46.7792 13.8811C46.8212 14.063 46.8869 14.2225 46.9765 14.3596C47.066 14.4967 47.1808 14.6045 47.3207 14.6828C47.4606 14.7612 47.6271 14.8003 47.8202 14.8003C48.0077 14.8003 48.17 14.7612 48.3071 14.6828C48.4471 14.6045 48.5618 14.4967 48.6514 14.3596C48.7409 14.2225 48.8067 14.063 48.8486 13.8811C48.8934 13.6992 48.9158 13.5061 48.9158 13.3018V13.2052C48.9158 13.0038 48.8934 12.8135 48.8486 12.6344C48.8067 12.4525 48.7395 12.2916 48.6472 12.1516C48.5576 12.0117 48.4429 11.9026 48.303 11.8242C48.1658 11.7431 48.0021 11.7025 47.8118 11.7025C47.6215 11.7025 47.4564 11.7431 47.3165 11.8242C47.1794 11.9026 47.066 12.0117 46.9765 12.1516C46.8869 12.2916 46.8212 12.4525 46.7792 12.6344C46.7372 12.8135 46.7162 13.0038 46.7162 13.2052ZM51.787 11.904V15.5223H50.7754V10.9805H51.7282L51.787 11.904ZM51.6233 13.0835L51.2791 13.0793C51.2791 12.7659 51.3183 12.4762 51.3966 12.2104C51.475 11.9445 51.5897 11.7137 51.7408 11.5178C51.8919 11.3191 52.0794 11.1666 52.3033 11.0602C52.53 10.9511 52.7916 10.8965 53.0883 10.8965C53.2954 10.8965 53.4842 10.9273 53.655 10.9889C53.8285 11.0476 53.9782 11.1414 54.1041 11.2701C54.2328 11.3989 54.3308 11.564 54.3979 11.7654C54.4679 11.9669 54.5029 12.2104 54.5029 12.4958V15.5223H53.4912V12.584C53.4912 12.3629 53.4577 12.1894 53.3905 12.0635C53.3261 11.9375 53.2324 11.848 53.1093 11.7948C52.9889 11.7389 52.8448 11.7109 52.6769 11.7109C52.4866 11.7109 52.3243 11.7473 52.19 11.82C52.0584 11.8928 51.9507 11.9921 51.8668 12.118C51.7828 12.244 51.7212 12.3895 51.6821 12.5546C51.6429 12.7197 51.6233 12.896 51.6233 13.0835ZM54.4399 12.8149L53.9656 12.9198C53.9656 12.6456 54.0034 12.3867 54.0789 12.1432C54.1573 11.897 54.2706 11.6815 54.4189 11.4968C54.57 11.3093 54.7561 11.1624 54.9772 11.056C55.1983 10.9497 55.4515 10.8965 55.737 10.8965C55.9693 10.8965 56.1763 10.9287 56.3582 10.9931C56.5429 11.0546 56.6996 11.1526 56.8284 11.2869C56.9571 11.4212 57.055 11.5961 57.1222 11.8116C57.1894 12.0243 57.2229 12.2818 57.2229 12.584V15.5223H56.2071V12.5798C56.2071 12.3503 56.1735 12.1726 56.1064 12.0467C56.042 11.9208 55.9497 11.834 55.8293 11.7864C55.709 11.7361 55.5649 11.7109 55.397 11.7109C55.2403 11.7109 55.1017 11.7403 54.9814 11.799C54.8639 11.855 54.7645 11.9348 54.6834 12.0383C54.6022 12.139 54.5407 12.2552 54.4987 12.3867C54.4595 12.5182 54.4399 12.6609 54.4399 12.8149ZM59.347 10.9805V15.5223H58.3311V10.9805H59.347ZM58.264 9.78835C58.264 9.63444 58.3143 9.50711 58.4151 9.40637C58.5186 9.30283 58.6613 9.25106 58.8432 9.25106C59.0223 9.25106 59.1637 9.30283 59.2672 9.40637C59.3707 9.50711 59.4225 9.63444 59.4225 9.78835C59.4225 9.93947 59.3707 10.0654 59.2672 10.1661C59.1637 10.2669 59.0223 10.3173 58.8432 10.3173C58.6613 10.3173 58.5186 10.2669 58.4151 10.1661C58.3143 10.0654 58.264 9.93947 58.264 9.78835ZM61.4584 11.9501V15.5223H60.4467V10.9805H61.3996L61.4584 11.9501ZM61.2779 13.0835L60.9505 13.0793C60.9533 12.7575 60.998 12.4623 61.0848 12.1936C61.1743 11.925 61.2975 11.6941 61.4542 11.501C61.6137 11.3079 61.804 11.1596 62.0251 11.056C62.2461 10.9497 62.4924 10.8965 62.7638 10.8965C62.9821 10.8965 63.1794 10.9273 63.3557 10.9889C63.5348 11.0476 63.6873 11.1442 63.8133 11.2785C63.942 11.4128 64.0399 11.5877 64.1071 11.8032C64.1742 12.0159 64.2078 12.2776 64.2078 12.5882V15.5223H63.192V12.584C63.192 12.3657 63.1598 12.1936 63.0955 12.0677C63.0339 11.9389 62.9429 11.848 62.8226 11.7948C62.7051 11.7389 62.5582 11.7109 62.3819 11.7109C62.2084 11.7109 62.053 11.7473 61.9159 11.82C61.7788 11.8928 61.6627 11.9921 61.5675 12.118C61.4752 12.244 61.4038 12.3895 61.3534 12.5546C61.3031 12.7197 61.2779 12.896 61.2779 13.0835ZM68.1494 10.9805H69.0687V15.3964C69.0687 15.805 68.982 16.152 68.8085 16.4374C68.6349 16.7229 68.3929 16.9397 68.0823 17.0881C67.7716 17.2392 67.412 17.3147 67.0035 17.3147C66.83 17.3147 66.6369 17.2895 66.4242 17.2392C66.2143 17.1888 66.01 17.1076 65.8113 16.9957C65.6154 16.8866 65.4517 16.7425 65.3202 16.5634L65.7945 15.9673C65.9569 16.1604 66.1359 16.3017 66.3318 16.3913C66.5277 16.4808 66.7334 16.5256 66.9489 16.5256C67.1812 16.5256 67.3785 16.4822 67.5408 16.3954C67.7059 16.3115 67.8332 16.187 67.9227 16.0219C68.0123 15.8568 68.0571 15.6553 68.0571 15.4174V12.0089L68.1494 10.9805ZM65.0642 13.3018V13.2136C65.0642 12.8694 65.1061 12.556 65.1901 12.2734C65.274 11.9879 65.3944 11.7431 65.5511 11.5388C65.7078 11.3317 65.8981 11.1736 66.122 11.0644C66.3458 10.9525 66.5991 10.8965 66.8817 10.8965C67.1756 10.8965 67.426 10.9497 67.6331 11.056C67.843 11.1624 68.0179 11.3149 68.1578 11.5136C68.2977 11.7095 68.4069 11.9445 68.4852 12.2188C68.5664 12.4902 68.6266 12.7925 68.6657 13.1255V13.4067C68.6294 13.7313 68.5678 14.028 68.481 14.2966C68.3943 14.5653 68.2795 14.7975 68.1368 14.9934C67.9941 15.1893 67.8178 15.3404 67.6079 15.4468C67.4008 15.5531 67.156 15.6063 66.8733 15.6063C66.5963 15.6063 66.3458 15.5489 66.122 15.4342C65.9009 15.3195 65.7106 15.1585 65.5511 14.9515C65.3944 14.7444 65.274 14.5009 65.1901 14.2211C65.1061 13.9384 65.0642 13.632 65.0642 13.3018ZM66.0758 13.2136V13.3018C66.0758 13.5089 66.0954 13.702 66.1346 13.8811C66.1765 14.0602 66.2395 14.2183 66.3234 14.3554C66.4102 14.4897 66.5193 14.5961 66.6509 14.6744C66.7852 14.75 66.9433 14.7878 67.1252 14.7878C67.3631 14.7878 67.5576 14.7374 67.7087 14.6366C67.8626 14.5359 67.9801 14.4002 68.0613 14.2295C68.1452 14.056 68.204 13.8629 68.2376 13.6502V12.8904C68.2208 12.7253 68.1858 12.5714 68.1326 12.4287C68.0823 12.286 68.0137 12.1614 67.9269 12.0551C67.8402 11.9459 67.7311 11.862 67.5995 11.8032C67.468 11.7417 67.3127 11.7109 67.1336 11.7109C66.9517 11.7109 66.7936 11.7501 66.6593 11.8284C66.5249 11.9068 66.4144 12.0145 66.3276 12.1516C66.2437 12.2888 66.1807 12.4483 66.1387 12.6302C66.0968 12.8121 66.0758 13.0065 66.0758 13.2136ZM75.5751 13.9482C75.5751 13.8223 75.5555 13.7104 75.5163 13.6124C75.4799 13.5145 75.4141 13.4249 75.319 13.3438C75.2239 13.2626 75.0895 13.1843 74.916 13.1087C74.7453 13.0303 74.527 12.9506 74.2612 12.8694C73.9702 12.7799 73.7015 12.6805 73.4552 12.5714C73.2118 12.4595 72.9991 12.3307 72.8172 12.1852C72.6353 12.0369 72.494 11.8676 72.3932 11.6773C72.2925 11.4842 72.2421 11.2617 72.2421 11.0099C72.2421 10.7608 72.2939 10.5341 72.3974 10.3299C72.5038 10.1256 72.6535 9.94926 72.8466 9.80095C73.0425 9.64983 73.2733 9.5337 73.5392 9.45254C73.8051 9.36859 74.0989 9.32661 74.4207 9.32661C74.8741 9.32661 75.2644 9.41057 75.5918 9.57847C75.9221 9.74638 76.1753 9.97165 76.3516 10.2543C76.5307 10.5369 76.6203 10.849 76.6203 11.1904H75.5751C75.5751 10.9889 75.5317 10.8112 75.4449 10.6573C75.361 10.5006 75.2322 10.3774 75.0587 10.2879C74.888 10.1983 74.6712 10.1535 74.4081 10.1535C74.1591 10.1535 73.952 10.1913 73.7869 10.2669C73.6218 10.3424 73.4986 10.4446 73.4175 10.5733C73.3363 10.702 73.2957 10.8476 73.2957 11.0099C73.2957 11.1246 73.3223 11.2295 73.3755 11.3247C73.4287 11.417 73.5098 11.5038 73.619 11.5849C73.7281 11.6633 73.8652 11.7375 74.0303 11.8074C74.1954 11.8774 74.3899 11.9445 74.6138 12.0089C74.9524 12.1097 75.2476 12.2216 75.4995 12.3447C75.7514 12.4651 75.9612 12.6022 76.1291 12.7561C76.2971 12.91 76.423 13.0849 76.5069 13.2808C76.5909 13.4739 76.6329 13.6936 76.6329 13.9398C76.6329 14.1973 76.5811 14.4296 76.4776 14.6366C76.374 14.8409 76.2257 15.0158 76.0326 15.1613C75.8423 15.3041 75.6128 15.4146 75.3442 15.493C75.0783 15.5685 74.7817 15.6063 74.4543 15.6063C74.1605 15.6063 73.8708 15.5671 73.5854 15.4888C73.3027 15.4104 73.0453 15.2915 72.813 15.132C72.5807 14.9696 72.396 14.7682 72.2589 14.5275C72.1218 14.284 72.0532 14 72.0532 13.6754H73.1068C73.1068 13.8741 73.1404 14.0434 73.2076 14.1833C73.2775 14.3232 73.3741 14.4379 73.4972 14.5275C73.6204 14.6142 73.7631 14.6786 73.9254 14.7206C74.0905 14.7626 74.2668 14.7836 74.4543 14.7836C74.7005 14.7836 74.9062 14.7486 75.0713 14.6786C75.2392 14.6087 75.3652 14.5107 75.4491 14.3848C75.5331 14.2588 75.5751 14.1133 75.5751 13.9482ZM77.2709 13.3018V13.2052C77.2709 12.8778 77.3185 12.5742 77.4136 12.2943C77.5088 12.0117 77.6459 11.7668 77.825 11.5598C78.0069 11.3499 78.228 11.1876 78.4882 11.0728C78.7513 10.9553 79.0479 10.8965 79.3781 10.8965C79.7111 10.8965 80.0078 10.9553 80.268 11.0728C80.5311 11.1876 80.7536 11.3499 80.9355 11.5598C81.1173 11.7668 81.2559 12.0117 81.351 12.2943C81.4462 12.5742 81.4937 12.8778 81.4937 13.2052V13.3018C81.4937 13.6292 81.4462 13.9328 81.351 14.2127C81.2559 14.4925 81.1173 14.7374 80.9355 14.9473C80.7536 15.1543 80.5325 15.3167 80.2722 15.4342C80.012 15.5489 79.7167 15.6063 79.3865 15.6063C79.0535 15.6063 78.7555 15.5489 78.4924 15.4342C78.2322 15.3167 78.0111 15.1543 77.8292 14.9473C77.6473 14.7374 77.5088 14.4925 77.4136 14.2127C77.3185 13.9328 77.2709 13.6292 77.2709 13.3018ZM78.2825 13.2052V13.3018C78.2825 13.5061 78.3035 13.6992 78.3455 13.8811C78.3875 14.063 78.4532 14.2225 78.5428 14.3596C78.6323 14.4967 78.7471 14.6045 78.887 14.6828C79.0269 14.7612 79.1934 14.8003 79.3865 14.8003C79.574 14.8003 79.7363 14.7612 79.8734 14.6828C80.0134 14.6045 80.1281 14.4967 80.2177 14.3596C80.3072 14.2225 80.373 14.063 80.4149 13.8811C80.4597 13.6992 80.4821 13.5061 80.4821 13.3018V13.2052C80.4821 13.0038 80.4597 12.8135 80.4149 12.6344C80.373 12.4525 80.3058 12.2916 80.2135 12.1516C80.1239 12.0117 80.0092 11.9026 79.8692 11.8242C79.7321 11.7431 79.5684 11.7025 79.3781 11.7025C79.1878 11.7025 79.0227 11.7431 78.8828 11.8242C78.7457 11.9026 78.6323 12.0117 78.5428 12.1516C78.4532 12.2916 78.3875 12.4525 78.3455 12.6344C78.3035 12.8135 78.2825 13.0038 78.2825 13.2052ZM82.1486 13.3018V13.2052C82.1486 12.8778 82.1961 12.5742 82.2913 12.2943C82.3864 12.0117 82.5236 11.7668 82.7027 11.5598C82.8846 11.3499 83.1056 11.1876 83.3659 11.0728C83.6289 10.9553 83.9256 10.8965 84.2558 10.8965C84.5888 10.8965 84.8854 10.9553 85.1457 11.0728C85.4087 11.1876 85.6312 11.3499 85.8131 11.5598C85.995 11.7668 86.1335 12.0117 86.2287 12.2943C86.3238 12.5742 86.3714 12.8778 86.3714 13.2052V13.3018C86.3714 13.6292 86.3238 13.9328 86.2287 14.2127C86.1335 14.4925 85.995 14.7374 85.8131 14.9473C85.6312 15.1543 85.4101 15.3167 85.1499 15.4342C84.8896 15.5489 84.5944 15.6063 84.2642 15.6063C83.9312 15.6063 83.6331 15.5489 83.3701 15.4342C83.1098 15.3167 82.8888 15.1543 82.7069 14.9473C82.525 14.7374 82.3864 14.4925 82.2913 14.2127C82.1961 13.9328 82.1486 13.6292 82.1486 13.3018ZM83.1602 13.2052V13.3018C83.1602 13.5061 83.1812 13.6992 83.2232 13.8811C83.2651 14.063 83.3309 14.2225 83.4205 14.3596C83.51 14.4967 83.6247 14.6045 83.7647 14.6828C83.9046 14.7612 84.0711 14.8003 84.2642 14.8003C84.4517 14.8003 84.614 14.7612 84.7511 14.6828C84.891 14.6045 85.0058 14.4967 85.0953 14.3596C85.1849 14.2225 85.2506 14.063 85.2926 13.8811C85.3374 13.6992 85.3598 13.5061 85.3598 13.3018V13.2052C85.3598 13.0038 85.3374 12.8135 85.2926 12.6344C85.2506 12.4525 85.1835 12.2916 85.0911 12.1516C85.0016 12.0117 84.8868 11.9026 84.7469 11.8242C84.6098 11.7431 84.4461 11.7025 84.2558 11.7025C84.0655 11.7025 83.9004 11.7431 83.7605 11.8242C83.6233 11.9026 83.51 12.0117 83.4205 12.1516C83.3309 12.2916 83.2651 12.4525 83.2232 12.6344C83.1812 12.8135 83.1602 13.0038 83.1602 13.2052ZM88.2226 11.9501V15.5223H87.2109V10.9805H88.1638L88.2226 11.9501ZM88.0421 13.0835L87.7146 13.0793C87.7174 12.7575 87.7622 12.4623 87.849 12.1936C87.9385 11.925 88.0617 11.6941 88.2184 11.501C88.3779 11.3079 88.5682 11.1596 88.7892 11.056C89.0103 10.9497 89.2566 10.8965 89.528 10.8965C89.7463 10.8965 89.9436 10.9273 90.1199 10.9889C90.299 11.0476 90.4515 11.1442 90.5774 11.2785C90.7062 11.4128 90.8041 11.5877 90.8713 11.8032C90.9384 12.0159 90.972 12.2776 90.972 12.5882V15.5223H89.9562V12.584C89.9562 12.3657 89.924 12.1936 89.8596 12.0677C89.7981 11.9389 89.7071 11.848 89.5868 11.7948C89.4693 11.7389 89.3223 11.7109 89.146 11.7109C88.9725 11.7109 88.8172 11.7473 88.6801 11.82C88.543 11.8928 88.4268 11.9921 88.3317 12.118C88.2394 12.244 88.168 12.3895 88.1176 12.5546C88.0673 12.7197 88.0421 12.896 88.0421 13.0835ZM96.2275 10.9805V11.7193H93.6669V10.9805H96.2275ZM94.4057 9.86811H95.4173V14.2672C95.4173 14.4072 95.4369 14.5149 95.4761 14.5905C95.5181 14.6632 95.5754 14.7122 95.6482 14.7374C95.721 14.7626 95.8063 14.7752 95.9043 14.7752C95.9742 14.7752 96.0414 14.771 96.1057 14.7626C96.1701 14.7542 96.2219 14.7458 96.2611 14.7374L96.2653 15.5097C96.1813 15.5349 96.0834 15.5573 95.9714 15.5769C95.8623 15.5965 95.7364 15.6063 95.5936 15.6063C95.3614 15.6063 95.1557 15.5657 94.9766 15.4846C94.7975 15.4006 94.6576 15.2649 94.5568 15.0774C94.4561 14.8899 94.4057 14.6408 94.4057 14.3302V9.86811ZM96.7144 13.3018V13.2052C96.7144 12.8778 96.762 12.5742 96.8571 12.2943C96.9523 12.0117 97.0894 11.7668 97.2685 11.5598C97.4504 11.3499 97.6715 11.1876 97.9317 11.0728C98.1948 10.9553 98.4914 10.8965 98.8216 10.8965C99.1546 10.8965 99.4513 10.9553 99.7115 11.0728C99.9746 11.1876 100.197 11.3499 100.379 11.5598C100.561 11.7668 100.699 12.0117 100.795 12.2943C100.89 12.5742 100.937 12.8778 100.937 13.2052V13.3018C100.937 13.6292 100.89 13.9328 100.795 14.2127C100.699 14.4925 100.561 14.7374 100.379 14.9473C100.197 15.1543 99.976 15.3167 99.7157 15.4342C99.4555 15.5489 99.1602 15.6063 98.83 15.6063C98.497 15.6063 98.199 15.5489 97.9359 15.4342C97.6757 15.3167 97.4546 15.1543 97.2727 14.9473C97.0908 14.7374 96.9523 14.4925 96.8571 14.2127C96.762 13.9328 96.7144 13.6292 96.7144 13.3018ZM97.726 13.2052V13.3018C97.726 13.5061 97.747 13.6992 97.789 13.8811C97.831 14.063 97.8967 14.2225 97.9863 14.3596C98.0758 14.4967 98.1906 14.6045 98.3305 14.6828C98.4704 14.7612 98.6369 14.8003 98.83 14.8003C99.0175 14.8003 99.1798 14.7612 99.3169 14.6828C99.4569 14.6045 99.5716 14.4967 99.6611 14.3596C99.7507 14.2225 99.8165 14.063 99.8584 13.8811C99.9032 13.6992 99.9256 13.5061 99.9256 13.3018V13.2052C99.9256 13.0038 99.9032 12.8135 99.8584 12.6344C99.8165 12.4525 99.7493 12.2916 99.657 12.1516C99.5674 12.0117 99.4527 11.9026 99.3127 11.8242C99.1756 11.7431 99.0119 11.7025 98.8216 11.7025C98.6313 11.7025 98.4662 11.7431 98.3263 11.8242C98.1892 11.9026 98.0758 12.0117 97.9863 12.1516C97.8967 12.2916 97.831 12.4525 97.789 12.6344C97.747 12.8135 97.726 13.0038 97.726 13.2052ZM106.008 10.9805V11.7193H103.447V10.9805H106.008ZM104.186 9.86811H105.198V14.2672C105.198 14.4072 105.217 14.5149 105.257 14.5905C105.299 14.6632 105.356 14.7122 105.429 14.7374C105.501 14.7626 105.587 14.7752 105.685 14.7752C105.755 14.7752 105.822 14.771 105.886 14.7626C105.951 14.7542 106.002 14.7458 106.042 14.7374L106.046 15.5097C105.962 15.5349 105.864 15.5573 105.752 15.5769C105.643 15.5965 105.517 15.6063 105.374 15.6063C105.142 15.6063 104.936 15.5657 104.757 15.4846C104.578 15.4006 104.438 15.2649 104.337 15.0774C104.237 14.8899 104.186 14.6408 104.186 14.3302V9.86811ZM107.788 9.07475V15.5223H106.78V9.07475H107.788ZM107.611 13.0835L107.284 13.0793C107.287 12.7659 107.33 12.4762 107.414 12.2104C107.501 11.9445 107.621 11.7137 107.775 11.5178C107.932 11.3191 108.119 11.1666 108.338 11.0602C108.556 10.9511 108.798 10.8965 109.064 10.8965C109.288 10.8965 109.489 10.9273 109.668 10.9889C109.85 11.0504 110.007 11.1498 110.138 11.2869C110.27 11.4212 110.369 11.5975 110.437 11.8158C110.506 12.0313 110.541 12.2943 110.541 12.605V15.5223H109.526V12.5966C109.526 12.3783 109.493 12.2048 109.429 12.0761C109.368 11.9473 109.277 11.855 109.156 11.799C109.036 11.7403 108.889 11.7109 108.715 11.7109C108.534 11.7109 108.373 11.7473 108.233 11.82C108.096 11.8928 107.981 11.9921 107.889 12.118C107.796 12.244 107.726 12.3895 107.679 12.5546C107.634 12.7197 107.611 12.896 107.611 13.0835ZM113.568 15.6063C113.232 15.6063 112.929 15.5517 112.657 15.4426C112.388 15.3306 112.159 15.1753 111.969 14.9766C111.781 14.778 111.637 14.5443 111.536 14.2756C111.436 14.007 111.385 13.7174 111.385 13.4067V13.2388C111.385 12.8834 111.437 12.5616 111.54 12.2734C111.644 11.9851 111.788 11.7389 111.973 11.5346C112.158 11.3275 112.376 11.1694 112.628 11.0602C112.88 10.9511 113.152 10.8965 113.446 10.8965C113.771 10.8965 114.055 10.9511 114.298 11.0602C114.542 11.1694 114.743 11.3233 114.903 11.522C115.065 11.7179 115.185 11.9515 115.264 12.223C115.345 12.4944 115.386 12.7939 115.386 13.1213V13.5536H111.876V12.8275H114.386V12.7477C114.381 12.5658 114.345 12.3951 114.277 12.2356C114.213 12.0761 114.114 11.9473 113.979 11.8494C113.845 11.7515 113.666 11.7025 113.442 11.7025C113.274 11.7025 113.124 11.7389 112.993 11.8116C112.864 11.8816 112.756 11.9837 112.67 12.118C112.583 12.2524 112.516 12.4147 112.468 12.605C112.423 12.7925 112.401 13.0038 112.401 13.2388V13.4067C112.401 13.6054 112.428 13.7901 112.481 13.9608C112.537 14.1287 112.618 14.2756 112.724 14.4016C112.831 14.5275 112.959 14.6268 113.11 14.6996C113.262 14.7696 113.434 14.8045 113.627 14.8045C113.87 14.8045 114.087 14.7556 114.277 14.6576C114.468 14.5597 114.633 14.4212 114.773 14.2421L115.306 14.7584C115.208 14.9011 115.081 15.0382 114.924 15.1697C114.767 15.2985 114.575 15.4034 114.349 15.4846C114.125 15.5657 113.865 15.6063 113.568 15.6063Z" fill="white"/>
</svg>
