<svg width="129" height="43" viewBox="0 0 129 43" fill="none" xmlns="http://www.w3.org/2000/svg">
<rect x="0.537299" y="0.537299" width="127.877" height="41.9093" rx="4.83569" fill="black"/>
<rect x="0.537299" y="0.537299" width="127.877" height="41.9093" rx="4.83569" stroke="#A6A6A6" stroke-width="1.0746"/>
<path d="M102.144 34.387H103.926V20.9528H102.144V34.387ZM118.198 25.7923L116.154 31.6166H116.093L113.973 25.7923H112.053L115.234 33.9324L113.42 38.4608H115.278L120.18 25.7923H118.198ZM108.089 32.8611C107.506 32.8611 106.691 32.5324 106.691 31.7202C106.691 30.6834 107.706 30.2859 108.581 30.2859C109.364 30.2859 109.734 30.4757 110.209 30.7351C110.071 31.9797 109.118 32.8611 108.089 32.8611ZM108.305 25.4984C107.014 25.4984 105.678 26.1381 105.125 27.5553L106.707 28.2983C107.045 27.5553 107.674 27.3135 108.335 27.3135C109.257 27.3135 110.194 27.9352 110.209 29.0417V29.1798C109.886 28.9724 109.195 28.6614 108.35 28.6614C106.644 28.6614 104.909 29.7154 104.909 31.6858C104.909 33.4832 106.307 34.6413 107.874 34.6413C109.072 34.6413 109.734 34.0364 110.147 33.3275H110.209V34.3652H111.93V29.2142C111.93 26.8291 110.347 25.4984 108.305 25.4984ZM97.2892 27.4277H94.7541V22.8229H97.2892C98.6217 22.8229 99.3782 24.0637 99.3782 25.1252C99.3782 26.1663 98.6217 27.4277 97.2892 27.4277ZM97.2434 20.9528H92.9725V34.387H94.7541V29.2974H97.2434C99.2187 29.2974 101.161 27.6888 101.161 25.1252C101.161 22.5622 99.2187 20.9528 97.2434 20.9528ZM73.9543 32.8636C72.723 32.8636 71.6924 31.7034 71.6924 30.1113C71.6924 28.5006 72.723 27.324 73.9543 27.324C75.17 27.324 76.124 28.5006 76.124 30.1113C76.124 31.7034 75.17 32.8636 73.9543 32.8636ZM76.0009 26.5446H75.9393C75.5394 26.008 74.7696 25.5233 73.8006 25.5233C71.7689 25.5233 69.907 27.5318 69.907 30.1113C69.907 32.6731 71.7689 34.664 73.8006 34.664C74.7696 34.664 75.5394 34.1791 75.9393 33.6255H76.0009V34.2828C76.0009 36.032 75.17 36.9664 73.8312 36.9664C72.739 36.9664 72.0619 36.0837 71.7846 35.3394L70.2306 36.0664C70.6765 37.2779 71.8611 38.7672 73.8312 38.7672C75.9244 38.7672 77.6941 37.382 77.6941 34.0058V25.8003H76.0009V26.5446ZM78.9255 34.387H80.7098V20.9528H78.9255V34.387ZM83.3414 29.9551C83.2955 28.1891 84.5578 27.2891 85.4652 27.2891C86.1734 27.2891 86.773 27.6875 86.9738 28.2584L83.3414 29.9551ZM88.8812 28.4313C88.5428 27.4105 87.5118 25.5233 85.4036 25.5233C83.3104 25.5233 81.5716 27.3757 81.5716 30.0936C81.5716 32.6559 83.2955 34.664 85.6032 34.664C87.4651 34.664 88.5428 33.3833 88.9893 32.6386L87.6043 31.5997C87.1424 32.3616 86.5118 32.8636 85.6032 32.8636C84.6958 32.8636 84.0492 32.3961 83.6343 31.4785L89.0658 28.951L88.8812 28.4313ZM45.6033 26.9256V28.8645H49.7274C49.6042 29.9551 49.2811 30.7514 48.7886 31.3055C48.1882 31.9804 47.2495 32.7251 45.6033 32.7251C43.0641 32.7251 41.0791 30.4227 41.0791 27.5662C41.0791 24.7097 43.0641 22.4069 45.6033 22.4069C46.9729 22.4069 47.9729 23.013 48.7117 23.7921L49.9278 22.4241C48.8964 21.3163 47.5271 20.468 45.6033 20.468C42.1249 20.468 39.2012 23.6536 39.2012 27.5662C39.2012 31.4785 42.1249 34.664 45.6033 34.664C47.4804 34.664 48.8964 33.9714 50.0043 32.6731C51.1431 31.392 51.4971 29.5916 51.4971 28.1371C51.4971 27.6875 51.4661 27.272 51.4046 26.9256H45.6033ZM56.1858 32.8636C54.9545 32.8636 53.8926 31.721 53.8926 30.0936C53.8926 28.449 54.9545 27.324 56.1858 27.324C57.4167 27.324 58.4786 28.449 58.4786 30.0936C58.4786 31.721 57.4167 32.8636 56.1858 32.8636ZM56.1858 25.5233C53.9384 25.5233 52.1075 27.4449 52.1075 30.0936C52.1075 32.7251 53.9384 34.664 56.1858 34.664C58.4324 34.664 60.2637 32.7251 60.2637 30.0936C60.2637 27.4449 58.4324 25.5233 56.1858 25.5233ZM65.0814 32.8636C63.8509 32.8636 62.7886 31.721 62.7886 30.0936C62.7886 28.449 63.8509 27.324 65.0814 27.324C66.3127 27.324 67.3742 28.449 67.3742 30.0936C67.3742 31.721 66.3127 32.8636 65.0814 32.8636ZM65.0814 25.5233C62.8349 25.5233 61.0039 27.4449 61.0039 30.0936C61.0039 32.7251 62.8349 34.664 65.0814 34.664C67.3288 34.664 69.1597 32.7251 69.1597 30.0936C69.1597 27.4449 67.3288 25.5233 65.0814 25.5233Z" fill="white"/>
<path d="M19.7867 20.872L9.61719 33.015C9.61757 33.0175 9.61833 33.0196 9.61872 33.0221C9.93059 34.3406 11.0011 35.3115 12.2716 35.3115C12.7795 35.3115 13.2563 35.1571 13.6652 34.8859L13.6977 34.8645L25.1448 27.4334L19.7867 20.872Z" fill="#EA4335"/>
<path d="M30.0752 18.8042L30.0654 18.7966L25.1234 15.5736L19.5557 21.1473L25.1428 27.432L30.0587 24.241C30.9206 23.7176 31.5057 22.6954 31.5057 21.5167C31.5057 20.3464 30.9284 19.3293 30.0752 18.8042Z" fill="#FBBC04"/>
<path d="M9.6167 9.96809C9.55557 10.2217 9.52344 10.4873 9.52344 10.7632V32.2203C9.52344 32.4956 9.55519 32.7622 9.61709 33.0149L20.1366 21.1826L9.6167 9.96809Z" fill="#4285F4"/>
<path d="M19.8616 21.4919L25.1253 15.572L13.6912 8.11407C13.2756 7.83403 12.7905 7.67241 12.2715 7.67241C11.001 7.67241 9.92905 8.64503 9.61708 9.96517C9.6167 9.96646 9.6167 9.96732 9.6167 9.9685L19.8616 21.4919Z" fill="#34A853"/>
<path d="M43.991 13.5327H45.0404C45.0068 13.9328 44.8949 14.2896 44.7046 14.6031C44.5143 14.9137 44.247 15.1585 43.9028 15.3376C43.5586 15.5167 43.1403 15.6063 42.6477 15.6063C42.27 15.6063 41.9299 15.5391 41.6277 15.4048C41.3255 15.2677 41.0666 15.0746 40.8512 14.8255C40.6357 14.5737 40.4706 14.27 40.3558 13.9146C40.2439 13.5592 40.1879 13.1619 40.1879 12.7225V12.2146C40.1879 11.7752 40.2453 11.3779 40.36 11.0225C40.4776 10.6671 40.6455 10.3634 40.8637 10.1116C41.082 9.85692 41.3437 9.66243 41.6487 9.5281C41.9565 9.39378 42.3021 9.32661 42.6855 9.32661C43.1725 9.32661 43.5838 9.41616 43.9196 9.59526C44.2554 9.77436 44.5157 10.022 44.7004 10.3382C44.8879 10.6545 45.0026 11.0169 45.0446 11.4254H43.9952C43.9672 11.1624 43.9056 10.9371 43.8105 10.7496C43.7181 10.5621 43.581 10.4194 43.3991 10.3215C43.2172 10.2207 42.9794 10.1703 42.6855 10.1703C42.4449 10.1703 42.235 10.2151 42.0559 10.3047C41.8768 10.3942 41.7271 10.5257 41.6067 10.6992C41.4864 10.8727 41.3954 11.0868 41.3339 11.3415C41.2751 11.5933 41.2457 11.8816 41.2457 12.2062V12.7225C41.2457 13.0303 41.2723 13.3102 41.3255 13.562C41.3815 13.8111 41.4654 14.0252 41.5773 14.2043C41.6921 14.3834 41.8376 14.5219 42.0139 14.6198C42.1902 14.7178 42.4015 14.7668 42.6477 14.7668C42.9472 14.7668 43.1892 14.7192 43.3739 14.624C43.5614 14.5289 43.7028 14.3904 43.7979 14.2085C43.8958 14.0238 43.9602 13.7985 43.991 13.5327ZM50.8709 12.2985V12.6344C50.8709 13.0961 50.8108 13.5103 50.6904 13.8769C50.5701 14.2435 50.398 14.5555 50.1741 14.8129C49.953 15.0704 49.6872 15.2677 49.3766 15.4048C49.0659 15.5391 48.7217 15.6063 48.344 15.6063C47.969 15.6063 47.6262 15.5391 47.3155 15.4048C47.0077 15.2677 46.7405 15.0704 46.5138 14.8129C46.2871 14.5555 46.1108 14.2435 45.9849 13.8769C45.8617 13.5103 45.8002 13.0961 45.8002 12.6344V12.2985C45.8002 11.8368 45.8617 11.424 45.9849 11.0602C46.108 10.6936 46.2815 10.3816 46.5054 10.1242C46.7321 9.86391 46.9993 9.66662 47.3071 9.5323C47.6178 9.39518 47.9606 9.32661 48.3356 9.32661C48.7133 9.32661 49.0576 9.39518 49.3682 9.5323C49.6788 9.66662 49.9461 9.86391 50.1699 10.1242C50.3938 10.3816 50.5659 10.6936 50.6862 11.0602C50.8094 11.424 50.8709 11.8368 50.8709 12.2985ZM49.8173 12.6344V12.2902C49.8173 11.9487 49.7837 11.6479 49.7166 11.3877C49.6522 11.1246 49.5557 10.9049 49.4269 10.7286C49.301 10.5495 49.1457 10.4152 48.961 10.3257C48.7763 10.2333 48.5678 10.1871 48.3356 10.1871C48.1033 10.1871 47.8962 10.2333 47.7143 10.3257C47.5324 10.4152 47.3771 10.5495 47.2484 10.7286C47.1224 10.9049 47.0259 11.1246 46.9587 11.3877C46.8916 11.6479 46.858 11.9487 46.858 12.2902V12.6344C46.858 12.9758 46.8916 13.278 46.9587 13.541C47.0259 13.8041 47.1238 14.0266 47.2526 14.2085C47.3841 14.3876 47.5408 14.5233 47.7227 14.6156C47.9046 14.7052 48.1117 14.75 48.344 14.75C48.579 14.75 48.7875 14.7052 48.9694 14.6156C49.1513 14.5233 49.3052 14.3876 49.4311 14.2085C49.5571 14.0266 49.6522 13.8041 49.7166 13.541C49.7837 13.278 49.8173 12.9758 49.8173 12.6344ZM52.3527 9.41057H53.293L55.0602 14.1245L56.8232 9.41057H57.7635L55.4296 15.5223H54.6824L52.3527 9.41057ZM51.9245 9.41057H52.8186L52.974 13.4907V15.5223H51.9245V9.41057ZM57.2975 9.41057H58.1958V15.5223H57.1422V13.4907L57.2975 9.41057ZM60.5717 9.41057V15.5223H59.5181V9.41057H60.5717ZM66.7296 9.41057V15.5223H65.676L62.935 11.1442V15.5223H61.8814V9.41057H62.935L65.6844 13.7971V9.41057H66.7296ZM72.6777 12.3993V14.7332C72.591 14.8479 72.4552 14.9738 72.2705 15.111C72.0886 15.2453 71.8466 15.3614 71.5443 15.4594C71.2421 15.5573 70.8657 15.6063 70.4152 15.6063C70.0318 15.6063 69.6806 15.5419 69.3616 15.4132C69.0425 15.2817 68.7669 15.09 68.5346 14.8381C68.3052 14.5863 68.1275 14.2798 68.0015 13.9188C67.8756 13.555 67.8126 13.1409 67.8126 12.6763V12.2524C67.8126 11.7906 67.87 11.3793 67.9847 11.0183C68.1023 10.6545 68.2702 10.3466 68.4885 10.0948C68.7067 9.84292 68.9698 9.65263 69.2776 9.5239C69.5882 9.39238 69.9394 9.32661 70.3312 9.32661C70.8321 9.32661 71.2463 9.41057 71.5737 9.57847C71.9039 9.74358 72.1586 9.97305 72.3377 10.2669C72.5168 10.5607 72.6301 10.8965 72.6777 11.2743H71.6451C71.6115 11.0616 71.5457 10.8713 71.4478 10.7034C71.3526 10.5355 71.2155 10.404 71.0364 10.3089C70.8601 10.2109 70.6307 10.1619 70.348 10.1619C70.1045 10.1619 69.8905 10.2081 69.7058 10.3005C69.5211 10.3928 69.3672 10.5285 69.244 10.7076C69.1237 10.8867 69.0327 11.105 68.9712 11.3625C68.9096 11.6199 68.8788 11.9138 68.8788 12.244V12.6763C68.8788 13.0121 68.9138 13.3102 68.9838 13.5704C69.0565 13.8307 69.1601 14.0504 69.2944 14.2295C69.4315 14.4086 69.598 14.5443 69.7939 14.6366C69.9898 14.7262 70.2109 14.771 70.4572 14.771C70.6978 14.771 70.8951 14.7514 71.049 14.7122C71.2029 14.6702 71.3247 14.6212 71.4142 14.5653C71.5066 14.5065 71.5779 14.4505 71.6283 14.3974V13.1843H70.3564V12.3993H72.6777ZM79.2008 13.9482C79.2008 13.8223 79.1813 13.7104 79.1421 13.6124C79.1057 13.5145 79.0399 13.4249 78.9448 13.3438C78.8496 13.2626 78.7153 13.1843 78.5418 13.1087C78.3711 13.0303 78.1528 12.9506 77.887 12.8694C77.5959 12.7799 77.3273 12.6805 77.081 12.5714C76.8376 12.4595 76.6249 12.3307 76.443 12.1852C76.2611 12.0369 76.1198 11.8676 76.019 11.6773C75.9183 11.4842 75.8679 11.2617 75.8679 11.0099C75.8679 10.7608 75.9197 10.5341 76.0232 10.3299C76.1296 10.1256 76.2793 9.94926 76.4724 9.80095C76.6683 9.64983 76.8991 9.5337 77.165 9.45254C77.4308 9.36859 77.7247 9.32661 78.0465 9.32661C78.4998 9.32661 78.8902 9.41057 79.2176 9.57847C79.5479 9.74638 79.8011 9.97165 79.9774 10.2543C80.1565 10.5369 80.2461 10.849 80.2461 11.1904H79.2008C79.2008 10.9889 79.1575 10.8112 79.0707 10.6573C78.9868 10.5006 78.858 10.3774 78.6845 10.2879C78.5138 10.1983 78.297 10.1535 78.0339 10.1535C77.7848 10.1535 77.5778 10.1913 77.4126 10.2669C77.2475 10.3424 77.1244 10.4446 77.0433 10.5733C76.9621 10.702 76.9215 10.8476 76.9215 11.0099C76.9215 11.1246 76.9481 11.2295 77.0013 11.3247C77.0544 11.417 77.1356 11.5038 77.2447 11.5849C77.3539 11.6633 77.491 11.7375 77.6561 11.8074C77.8212 11.8774 78.0157 11.9445 78.2396 12.0089C78.5782 12.1097 78.8734 12.2216 79.1253 12.3447C79.3771 12.4651 79.587 12.6022 79.7549 12.7561C79.9228 12.91 80.0488 13.0849 80.1327 13.2808C80.2167 13.4739 80.2587 13.6936 80.2587 13.9398C80.2587 14.1973 80.2069 14.4296 80.1033 14.6366C79.9998 14.8409 79.8515 15.0158 79.6584 15.1613C79.4681 15.3041 79.2386 15.4146 78.97 15.493C78.7041 15.5685 78.4075 15.6063 78.0801 15.6063C77.7862 15.6063 77.4966 15.5671 77.2112 15.4888C76.9285 15.4104 76.6711 15.2915 76.4388 15.132C76.2065 14.9696 76.0218 14.7682 75.8847 14.5275C75.7476 14.284 75.679 14 75.679 13.6754H76.7326C76.7326 13.8741 76.7662 14.0434 76.8334 14.1833C76.9033 14.3232 76.9999 14.4379 77.123 14.5275C77.2461 14.6142 77.3889 14.6786 77.5512 14.7206C77.7163 14.7626 77.8926 14.7836 78.0801 14.7836C78.3263 14.7836 78.532 14.7486 78.6971 14.6786C78.865 14.6087 78.991 14.5107 79.0749 14.3848C79.1589 14.2588 79.2008 14.1133 79.2008 13.9482ZM86.064 12.2985V12.6344C86.064 13.0961 86.0038 13.5103 85.8835 13.8769C85.7632 14.2435 85.5911 14.5555 85.3672 14.8129C85.1461 15.0704 84.8803 15.2677 84.5696 15.4048C84.259 15.5391 83.9148 15.6063 83.537 15.6063C83.162 15.6063 82.8192 15.5391 82.5086 15.4048C82.2008 15.2677 81.9335 15.0704 81.7068 14.8129C81.4802 14.5555 81.3039 14.2435 81.1779 13.8769C81.0548 13.5103 80.9932 13.0961 80.9932 12.6344V12.2985C80.9932 11.8368 81.0548 11.424 81.1779 11.0602C81.3011 10.6936 81.4746 10.3816 81.6984 10.1242C81.9251 9.86391 82.1924 9.66662 82.5002 9.5323C82.8108 9.39518 83.1536 9.32661 83.5286 9.32661C83.9064 9.32661 84.2506 9.39518 84.5612 9.5323C84.8719 9.66662 85.1391 9.86391 85.363 10.1242C85.5869 10.3816 85.759 10.6936 85.8793 11.0602C86.0024 11.424 86.064 11.8368 86.064 12.2985ZM85.0104 12.6344V12.2902C85.0104 11.9487 84.9768 11.6479 84.9096 11.3877C84.8453 11.1246 84.7487 10.9049 84.62 10.7286C84.4941 10.5495 84.3388 10.4152 84.1541 10.3257C83.9694 10.2333 83.7609 10.1871 83.5286 10.1871C83.2963 10.1871 83.0893 10.2333 82.9074 10.3257C82.7255 10.4152 82.5702 10.5495 82.4414 10.7286C82.3155 10.9049 82.219 11.1246 82.1518 11.3877C82.0846 11.6479 82.051 11.9487 82.051 12.2902V12.6344C82.051 12.9758 82.0846 13.278 82.1518 13.541C82.219 13.8041 82.3169 14.0266 82.4456 14.2085C82.5772 14.3876 82.7339 14.5233 82.9158 14.6156C83.0977 14.7052 83.3047 14.75 83.537 14.75C83.7721 14.75 83.9806 14.7052 84.1625 14.6156C84.3444 14.5233 84.4983 14.3876 84.6242 14.2085C84.7501 14.0266 84.8453 13.8041 84.9096 13.541C84.9768 13.278 85.0104 12.9758 85.0104 12.6344ZM91.9911 12.2985V12.6344C91.9911 13.0961 91.9309 13.5103 91.8106 13.8769C91.6902 14.2435 91.5181 14.5555 91.2943 14.8129C91.0732 15.0704 90.8073 15.2677 90.4967 15.4048C90.1861 15.5391 89.8419 15.6063 89.4641 15.6063C89.0891 15.6063 88.7463 15.5391 88.4357 15.4048C88.1278 15.2677 87.8606 15.0704 87.6339 14.8129C87.4072 14.5555 87.2309 14.2435 87.105 13.8769C86.9819 13.5103 86.9203 13.0961 86.9203 12.6344V12.2985C86.9203 11.8368 86.9819 11.424 87.105 11.0602C87.2281 10.6936 87.4016 10.3816 87.6255 10.1242C87.8522 9.86391 88.1194 9.66662 88.4273 9.5323C88.7379 9.39518 89.0807 9.32661 89.4557 9.32661C89.8335 9.32661 90.1777 9.39518 90.4883 9.5323C90.7989 9.66662 91.0662 9.86391 91.2901 10.1242C91.5139 10.3816 91.686 10.6936 91.8064 11.0602C91.9295 11.424 91.9911 11.8368 91.9911 12.2985ZM90.9375 12.6344V12.2902C90.9375 11.9487 90.9039 11.6479 90.8367 11.3877C90.7724 11.1246 90.6758 10.9049 90.5471 10.7286C90.4212 10.5495 90.2658 10.4152 90.0811 10.3257C89.8965 10.2333 89.688 10.1871 89.4557 10.1871C89.2234 10.1871 89.0163 10.2333 88.8344 10.3257C88.6525 10.4152 88.4972 10.5495 88.3685 10.7286C88.2426 10.9049 88.146 11.1246 88.0789 11.3877C88.0117 11.6479 87.9781 11.9487 87.9781 12.2902V12.6344C87.9781 12.9758 88.0117 13.278 88.0789 13.541C88.146 13.8041 88.244 14.0266 88.3727 14.2085C88.5042 14.3876 88.6609 14.5233 88.8428 14.6156C89.0247 14.7052 89.2318 14.75 89.4641 14.75C89.6992 14.75 89.9076 14.7052 90.0895 14.6156C90.2714 14.5233 90.4254 14.3876 90.5513 14.2085C90.6772 14.0266 90.7724 13.8041 90.8367 13.541C90.9039 13.278 90.9375 12.9758 90.9375 12.6344ZM97.893 9.41057V15.5223H96.8394L94.0983 11.1442V15.5223H93.0447V9.41057H94.0983L96.8478 13.7971V9.41057H97.893ZM106.162 12.2985V12.6344C106.162 13.0961 106.102 13.5103 105.982 13.8769C105.861 14.2435 105.689 14.5555 105.466 14.8129C105.244 15.0704 104.979 15.2677 104.668 15.4048C104.357 15.5391 104.013 15.6063 103.635 15.6063C103.26 15.6063 102.918 15.5391 102.607 15.4048C102.299 15.2677 102.032 15.0704 101.805 14.8129C101.578 14.5555 101.402 14.2435 101.276 13.8769C101.153 13.5103 101.092 13.0961 101.092 12.6344V12.2985C101.092 11.8368 101.153 11.424 101.276 11.0602C101.399 10.6936 101.573 10.3816 101.797 10.1242C102.023 9.86391 102.291 9.66662 102.599 9.5323C102.909 9.39518 103.252 9.32661 103.627 9.32661C104.005 9.32661 104.349 9.39518 104.66 9.5323C104.97 9.66662 105.237 9.86391 105.461 10.1242C105.685 10.3816 105.857 10.6936 105.978 11.0602C106.101 11.424 106.162 11.8368 106.162 12.2985ZM105.109 12.6344V12.2902C105.109 11.9487 105.075 11.6479 105.008 11.3877C104.944 11.1246 104.847 10.9049 104.718 10.7286C104.592 10.5495 104.437 10.4152 104.252 10.3257C104.068 10.2333 103.859 10.1871 103.627 10.1871C103.395 10.1871 103.188 10.2333 103.006 10.3257C102.824 10.4152 102.668 10.5495 102.54 10.7286C102.414 10.9049 102.317 11.1246 102.25 11.3877C102.183 11.6479 102.149 11.9487 102.149 12.2902V12.6344C102.149 12.9758 102.183 13.278 102.25 13.541C102.317 13.8041 102.415 14.0266 102.544 14.2085C102.675 14.3876 102.832 14.5233 103.014 14.6156C103.196 14.7052 103.403 14.75 103.635 14.75C103.87 14.75 104.079 14.7052 104.261 14.6156C104.443 14.5233 104.597 14.3876 104.723 14.2085C104.848 14.0266 104.944 13.8041 105.008 13.541C105.075 13.278 105.109 12.9758 105.109 12.6344ZM112.064 9.41057V15.5223H111.011L108.27 11.1442V15.5223H107.216V9.41057H108.27L111.019 13.7971V9.41057H112.064Z" fill="white"/>
</svg>
